{
	"asset":{
		"generator":"Khronos glTF Blender I/O v4.5.51",
		"version":"2.0"
	},
	"scene":0,
	"scenes":[
		{
			"name":"Scene",
			"nodes":[
				0
			]
		}
	],
	"nodes":[
		{
			"mesh":0,
			"name":"biconvex_b_E0",
			"rotation":[
				0.7071068286895752,
				0,
				0,
				0.7071068286895752
			],
			"translation":[
				0,
				27,
				-45
			]
		}
	],
	"materials":[
		{
			"doubleSided":true,
			"name":"LensGlass"
		}
	],
	"meshes":[
		{
			"name":"biconvex_b_E0",
			"primitives":[
				{
					"attributes":{
						"POSITION":0,
						"NORMAL":1
					},
					"indices":2,
					"material":0
				}
			]
		}
	],
	"accessors":[
		{
			"bufferView":0,
			"componentType":5126,
			"count":129340,
			"max":[
				20,
				5.5,
				19.999996185302734
			],
			"min":[
				-19.9999942779541,
				0,
				-19.999996185302734
			],
			"type":"VEC3"
		},
		{
			"bufferView":1,
			"componentType":5126,
			"count":129340,
			"type":"VEC3"
		},
		{
			"bufferView":2,
			"componentType":5125,
			"count":193536,
			"type":"SCALAR"
		}
	],
	"bufferViews":[
		{
			"buffer":0,
			"byteLength":1552080,
			"byteOffset":0,
			"target":34962
		},
		{
			"buffer":0,
			"byteLength":1552080,
			"byteOffset":1552080,
			"target":34962
		},
		{
			"buffer":0,
			"byteLength":774144,
			"byteOffset":3104160,
			"target":34963
		}
	],
	"buffers":[
		{
			"byteLength":3878304,
			"uri":"lens.bin"
		}
	]
}
