{
	"asset":{
		"generator":"Khronos glTF Blender I/O v4.5.51",
		"version":"2.0"
	},
	"scene":0,
	"scenes":[
		{
			"name":"Scene",
			"nodes":[
				0
			]
		}
	],
	"nodes":[
		{
			"mesh":0,
			"name":"fresnel_a",
			"rotation":[
				0.7071068286895752,
				0,
				0,
				0.7071068286895752
			],
			"translation":[
				0,
				27,
				-45
			]
		}
	],
	"materials":[
		{
			"doubleSided":true,
			"name":"LensGlass"
		}
	],
	"meshes":[
		{
			"name":"fresnel_a",
			"primitives":[
				{
					"attributes":{
						"POSITION":0,
						"NORMAL":1
					},
					"indices":2,
					"material":0
				}
			]
		}
	],
	"accessors":[
		{
			"bufferView":0,
			"componentType":5126,
			"count":123367,
			"max":[
				50,
				1.0271414518356323,
				49.999961853027344
			],
			"min":[
				-49.999977111816406,
				0,
				-49.9999885559082
			],
			"type":"VEC3"
		},
		{
			"bufferView":1,
			"componentType":5126,
			"count":123367,
			"type":"VEC3"
		},
		{
			"bufferView":2,
			"componentType":5125,
			"count":185856,
			"type":"SCALAR"
		}
	],
	"bufferViews":[
		{
			"buffer":0,
			"byteLength":1480404,
			"byteOffset":0,
			"target":34962
		},
		{
			"buffer":0,
			"byteLength":1480404,
			"byteOffset":1480404,
			"target":34962
		},
		{
			"buffer":0,
			"byteLength":743424,
			"byteOffset":2960808,
			"target":34963
		}
	],
	"buffers":[
		{
			"byteLength":3704232,
			"uri":"lens.bin"
		}
	]
}
