{
	"asset":{
		"generator":"Khronos glTF Blender I/O v4.5.51",
		"version":"2.0"
	},
	"scene":0,
	"scenes":[
		{
			"name":"Scene",
			"nodes":[
				0,
				1,
				2
			]
		}
	],
	"nodes":[
		{
			"mesh":0,
			"name":"triplet_a_E0",
			"rotation":[
				0.7071068286895752,
				0,
				0,
				0.7071068286895752
			],
			"translation":[
				0,
				27,
				-45
			]
		},
		{
			"mesh":1,
			"name":"triplet_a_E1",
			"rotation":[
				0.7071068286895752,
				0,
				0,
				0.7071068286895752
			],
			"translation":[
				0,
				27,
				-45
			]
		},
		{
			"mesh":2,
			"name":"triplet_a_E2",
			"rotation":[
				0.7071068286895752,
				0,
				0,
				0.7071068286895752
			],
			"translation":[
				0,
				27,
				-45
			]
		}
	],
	"materials":[
		{
			"doubleSided":true,
			"name":"LensGlass"
		}
	],
	"meshes":[
		{
			"name":"triplet_a_E0",
			"primitives":[
				{
					"attributes":{
						"POSITION":0,
						"NORMAL":1
					},
					"indices":2,
					"material":0
				}
			]
		},
		{
			"name":"triplet_a_E1",
			"primitives":[
				{
					"attributes":{
						"POSITION":3,
						"NORMAL":4
					},
					"indices":5,
					"material":0
				}
			]
		},
		{
			"name":"triplet_a_E2",
			"primitives":[
				{
					"attributes":{
						"POSITION":6,
						"NORMAL":7
					},
					"indices":8,
					"material":0
				}
			]
		}
	],
	"accessors":[
		{
			"bufferView":0,
			"componentType":5126,
			"count":129234,
			"max":[
				24,
				4.59304666519165,
				23.999988555908203
			],
			"min":[
				-23.9999942779541,
				0,
				-23.999998092651367
			],
			"type":"VEC3"
		},
		{
			"bufferView":1,
			"componentType":5126,
			"count":129234,
			"type":"VEC3"
		},
		{
			"bufferView":2,
			"componentType":5125,
			"count":193536,
			"type":"SCALAR"
		},
		{
			"bufferView":3,
			"componentType":5126,
			"count":129418,
			"max":[
				20,
				5.689011096954346,
				19.999996185302734
			],
			"min":[
				-19.9999942779541,
				-2.6676294803619385,
				-19.999996185302734
			],
			"type":"VEC3"
		},
		{
			"bufferView":4,
			"componentType":5126,
			"count":129418,
			"type":"VEC3"
		},
		{
			"bufferView":5,
			"componentType":5125,
			"count":193536,
			"type":"SCALAR"
		},
		{
			"bufferView":6,
			"componentType":5126,
			"count":129134,
			"max":[
				22,
				3.799999952316284,
				21.999990463256836
			],
			"min":[
				-21.9999942779541,
				-0.036285266280174255,
				-21.999998092651367
			],
			"type":"VEC3"
		},
		{
			"bufferView":7,
			"componentType":5126,
			"count":129134,
			"type":"VEC3"
		},
		{
			"bufferView":8,
			"componentType":5125,
			"count":193536,
			"type":"SCALAR"
		}
	],
	"bufferViews":[
		{
			"buffer":0,
			"byteLength":1550808,
			"byteOffset":0,
			"target":34962
		},
		{
			"buffer":0,
			"byteLength":1550808,
			"byteOffset":1550808,
			"target":34962
		},
		{
			"buffer":0,
			"byteLength":774144,
			"byteOffset":3101616,
			"target":34963
		},
		{
			"buffer":0,
			"byteLength":1553016,
			"byteOffset":3875760,
			"target":34962
		},
		{
			"buffer":0,
			"byteLength":1553016,
			"byteOffset":5428776,
			"target":34962
		},
		{
			"buffer":0,
			"byteLength":774144,
			"byteOffset":6981792,
			"target":34963
		},
		{
			"buffer":0,
			"byteLength":1549608,
			"byteOffset":7755936,
			"target":34962
		},
		{
			"buffer":0,
			"byteLength":1549608,
			"byteOffset":9305544,
			"target":34962
		},
		{
			"buffer":0,
			"byteLength":774144,
			"byteOffset":10855152,
			"target":34963
		}
	],
	"buffers":[
		{
			"byteLength":11629296,
			"uri":"lens.bin"
		}
	]
}
