{
	"asset":{
		"generator":"Khronos glTF Blender I/O v4.5.51",
		"version":"2.0"
	},
	"scene":0,
	"scenes":[
		{
			"name":"Scene",
			"nodes":[
				0
			]
		}
	],
	"nodes":[
		{
			"mesh":0,
			"name":"fresnel_b",
			"rotation":[
				0.7071068286895752,
				0,
				0,
				0.7071068286895752
			],
			"translation":[
				0,
				27,
				-45
			]
		}
	],
	"materials":[
		{
			"doubleSided":true,
			"name":"LensGlass"
		}
	],
	"meshes":[
		{
			"name":"fresnel_b",
			"primitives":[
				{
					"attributes":{
						"POSITION":0,
						"NORMAL":1
					},
					"indices":2,
					"material":0
				}
			]
		}
	],
	"accessors":[
		{
			"bufferView":0,
			"componentType":5126,
			"count":164313,
			"max":[
				40,
				0.8008407950401306,
				39.99999237060547
			],
			"min":[
				-39.9999885559082,
				0,
				-39.99999237060547
			],
			"type":"VEC3"
		},
		{
			"bufferView":1,
			"componentType":5126,
			"count":164313,
			"type":"VEC3"
		},
		{
			"bufferView":2,
			"componentType":5125,
			"count":247296,
			"type":"SCALAR"
		}
	],
	"bufferViews":[
		{
			"buffer":0,
			"byteLength":1971756,
			"byteOffset":0,
			"target":34962
		},
		{
			"buffer":0,
			"byteLength":1971756,
			"byteOffset":1971756,
			"target":34962
		},
		{
			"buffer":0,
			"byteLength":989184,
			"byteOffset":3943512,
			"target":34963
		}
	],
	"buffers":[
		{
			"byteLength":4932696,
			"uri":"lens.bin"
		}
	]
}
