{
	"asset":{
		"generator":"Khronos glTF Blender I/O v4.5.51",
		"version":"2.0"
	},
	"scene":0,
	"scenes":[
		{
			"name":"Scene",
			"nodes":[
				0
			]
		}
	],
	"nodes":[
		{
			"mesh":0,
			"name":"fresnel_c",
			"rotation":[
				0.7071068286895752,
				0,
				0,
				0.7071068286895752
			],
			"translation":[
				0,
				27,
				-45
			]
		}
	],
	"materials":[
		{
			"doubleSided":true,
			"name":"LensGlass"
		}
	],
	"meshes":[
		{
			"name":"fresnel_c",
			"primitives":[
				{
					"attributes":{
						"POSITION":0,
						"NORMAL":1
					},
					"indices":2,
					"material":0
				}
			]
		}
	],
	"accessors":[
		{
			"bufferView":0,
			"componentType":5126,
			"count":147809,
			"max":[
				60,
				1.1428937911987305,
				60.00001907348633
			],
			"min":[
				-60.0000114440918,
				0,
				-60.000003814697266
			],
			"type":"VEC3"
		},
		{
			"bufferView":1,
			"componentType":5126,
			"count":147809,
			"type":"VEC3"
		},
		{
			"bufferView":2,
			"componentType":5125,
			"count":222720,
			"type":"SCALAR"
		}
	],
	"bufferViews":[
		{
			"buffer":0,
			"byteLength":1773708,
			"byteOffset":0,
			"target":34962
		},
		{
			"buffer":0,
			"byteLength":1773708,
			"byteOffset":1773708,
			"target":34962
		},
		{
			"buffer":0,
			"byteLength":890880,
			"byteOffset":3547416,
			"target":34963
		}
	],
	"buffers":[
		{
			"byteLength":4438296,
			"uri":"lens.bin"
		}
	]
}
